# xmcd
#
# Track frame offsets:
#	150
#	15879
#	28038
#	40564
#	49639
#	61559
#	75894
#	89610
#	100696
#	111386
#	122068
#	136276
#	149914
#	164776
#	176744
#	189628
#	200792
#	212411
#	224714
#	238859
#	249997
#	260727
#	271624
#	286191
#	299972
#	313474
#	326072
#	338249
#
# Disc length: 4707 seconds
#
# Revision: 0
# Processed by: cddbd v1.5.2PL0 Copyright (c) Steve Scherf et al.
# Submitted via: audiograbber 1.83.01
#
DISCID=b512611c
DTITLE=Leona Williams - This Is Leona Williams Country
DYEAR=1900
DGENRE=Country
TTITLE0=Someday When Things Are Good
TTITLE1=The Bull And The Beaver (With Merle Haggard)
TTITLE2=We Agree That We Must Be In Love
TTITLE3=The More I See Of Those Cowboys
TTITLE4=Heart To Heart Talk (With Merle Haggard)
TTITLE5=Midnight Love
TTITLE6=You SureMake Cheatin' Seem Easy 
TTITLE7=Let's Pretend We're Not Married Tonight
TTITLE8=The Telephone Line
TTITLE9=You Take Me For Granted
TTITLE10=I Dropped Your Name
TTITLE11=You Can't Break The Chains Of Love (With Merle Haggard)
TTITLE12=Melted Down Memories
TTITLE13=Waltz Across Texas (With Merle Haggard)
TTITLE14=My First Night Away From Home
TTITLE15=Divorce On The Rocks
TTITLE16=We're Strangers Again (With Merle Haggard)
TTITLE17=Old Loves Never Die
TTITLE18=Waitin' On The Good Life To Come (With Merle Haggard)
TTITLE19=Waitin' My Turn
TTITLE20=Don't Ever Let Your Lover Sleep Alone (With Merle Haggard)
TTITLE21=Too Long A Time To Say Goodbye
TTITLE22=It's Cold In California (With Merle Haggard)
TTITLE23=Love And Honor
TTITLE24=I'll Never Be Free (With Merle Haggard)
TTITLE25=Tiny White Circle
TTITLE26=Thinkin' About Me
TTITLE27=Sally Let Your Bangs Hang Down (With Merle Haggard)
EXTD=Ernest Tubb Record Shop ETRS 1026\nwww.ernesttubb.com
EXTT0=
EXTT1=
EXTT2=
EXTT3=
EXTT4=
EXTT5=
EXTT6=
EXTT7=
EXTT8=
EXTT9=
EXTT10=
EXTT11=
EXTT12=
EXTT13=
EXTT14=
EXTT15=
EXTT16=
EXTT17=
EXTT18=
EXTT19=
EXTT20=
EXTT21=
EXTT22=
EXTT23=
EXTT24=
EXTT25=
EXTT26=
EXTT27=
PLAYORDER=
